<?xml version="1.0" encoding="utf-8"?>
<!-- Generator: Adobe Illustrator 21.0.0, SVG Export Plug-In . SVG Version: 6.00 Build 0)  -->
<svg version="1.1" id="Layer_1" xmlns="http://www.w3.org/2000/svg" xmlns:xlink="http://www.w3.org/1999/xlink" x="0px" y="0px"
	 viewBox="0 0 161.7 36.7" style="enable-background:new 0 0 161.7 36.7;" xml:space="preserve">
<style type="text/css">
	.st0{fill:#FED136;}
</style>
<g>
	<g>
		<path class="st0" d="M2.9,26.9c-0.3-0.3-0.4-0.7-0.4-1.1c0-0.4,0.1-0.7,0.3-1.1c0.3-0.7,0.6-1.2,0.9-1.6C3.9,23,3.9,22.8,4,22.7
			s0.1-0.3,0.1-0.5C4.3,22,4.6,21.5,5,20.7c0.6-1,1.5-2.5,2.6-4.6c0.2-0.3,0.5-0.8,0.9-1.7C9,13.6,9.3,13.1,9.5,13l0.1-0.2
			c0,0.1,0-0.1,0.2-0.5c0.2-0.4,0.4-0.8,0.7-1.2c0.2-0.4,0.5-0.5,0.7-0.5c0.2,0,0.4,0.1,0.7,0.2c0.3,0.2,0.5,0.4,0.7,0.7
			c0.2,0.3,0.3,0.7,0.3,1.1c0,0.2,0,0.3,0,0.5l-0.2,1.6l-0.1,0.5c-0.2,1-0.5,2.5-0.9,4.3c-0.4,1.6-0.5,2.6-0.5,2.9
			c0,0.1,0,0.2,0,0.2c0,0.1,0.1,0.1,0.1,0.1c0,0,0.1-0.1,0.2-0.2c0.1-0.1,0.2-0.3,0.3-0.5l0.3-0.5l0.4-0.6c0.4-0.6,1-1.4,1.6-2.5
			c0.6-1.1,1.7-2.9,3.1-5.4c0.3-0.4,0.5-0.8,0.7-1.2c0.3-0.4,0.5-0.8,0.7-1.2c0.2-0.4,0.4-0.6,0.5-0.7c0.2-0.1,0.4-0.2,0.6-0.2
			c0.2,0,0.5,0.1,0.7,0.3c0.3,0.2,0.5,0.4,0.7,0.7c0.2,0.3,0.3,0.6,0.3,0.9c0,0.4-0.1,1.1-0.3,2.1c-0.2,1-0.5,2-0.8,2.9
			c-0.1,0.3-0.3,1.1-0.6,2.3c-0.3,0.9-0.4,1.6-0.6,2.2s-0.2,1-0.2,1.3v0.2c-0.2,0.4-0.4,1.3-0.4,2.6c-0.1,0.5-0.2,0.9-0.4,1.2
			c-0.2,0.3-0.3,0.4-0.4,0.4l-0.1,0c-0.1,0-0.2,0-0.2,0.1c-0.1,0.1-0.2,0.1-0.3,0.1c-0.4,0-0.7-0.1-0.8-0.4
			c-0.1-0.3-0.2-0.7-0.2-1.2c0-0.3,0-0.5,0-0.7c0-0.4,0.6-2.5,1.5-6.4c0.8-3,1.1-4.6,1.1-4.8l-0.3,0.6c-0.3,0.6-0.7,1.3-1.2,2.1
			l-1.7,3.1c-0.2,0.3-0.4,0.6-0.5,0.8c-0.1,0.3-0.2,0.4-0.2,0.5c-0.2,0.4-0.6,0.9-1.1,1.6c-0.2,0.2-0.3,0.4-0.3,0.5
			c-0.1,0.2-0.3,0.5-0.8,0.9c-0.4,0.4-0.9,0.8-1.3,1.2c-0.5,0.4-0.9,0.5-1.2,0.5c-0.4,0-0.8-0.2-1.1-0.6c-0.3-0.4-0.5-0.9-0.5-1.5
			c0-0.4,0.1-1.1,0.2-2.1c0.3-1.1,0.5-2.2,0.8-3.3c0.3-1.1,0.5-1.9,0.6-2.2c0-0.1,0.1-0.3,0.1-0.5c0-0.1,0-0.2,0-0.2c0,0,0,0-0.1,0
			c0,0-0.1,0.1-0.1,0.1c-0.2,0.4-0.6,1-1.1,2c-0.5,0.9-1,2.1-1.6,3.3C5.3,24.8,4,27,3.7,27.4C3.4,27.4,3.2,27.3,2.9,26.9z"/>
		<path class="st0" d="M21.3,25.2C21.1,25,21,24.9,21,24.9c0-0.1,0-0.2-0.1-0.3c-0.1-0.1-0.1-0.2-0.2-0.3c-0.1-0.1,0-0.5,0.3-1.2
			c0.3-0.7,0.7-1.5,1.2-2.5c0.1-0.1,0.2-0.3,0.4-0.5c0.1-0.2,0.2-0.4,0.3-0.4c0-0.1,0-0.1,0.1-0.2c0-0.1,0.1-0.1,0.2-0.1l0.2-0.4
			c0.1-0.1,0.4-0.5,0.9-1c0.6-0.5,1-0.9,1.3-1.1c0.3-0.2,0.6-0.3,1-0.3c0.4,0,0.7,0.1,1,0.3l0.6,0.5c0.5,0.4,0.7,0.6,0.8,0.7
			l0.9,0.8l-0.4,1.2c-0.1,0.4-0.2,0.8-0.2,1.2c0,0.6,0.2,1.2,0.5,1.7c0.1,0.2,0.2,0.3,0.3,0.4c0.1,0.1,0.3,0.2,0.5,0.2
			c0.3,0.1,0.5,0.2,0.5,0.5c0,0.3-0.1,0.6-0.2,0.8c-0.1,0.2-0.3,0.3-0.4,0.3c-0.3,0-0.4,0-0.5,0c-0.5,0-0.9-0.1-1.3-0.4
			c-0.4-0.2-0.7-0.6-1-1.2c-0.1-0.1-0.1-0.3-0.2-0.5c-0.1-0.3-0.2-0.4-0.2-0.5c-0.1,0.2-0.3,0.4-0.5,0.6c-1.6,1.6-2.9,2.5-4,2.5
			c-0.3,0-0.7-0.1-0.9-0.3C21.7,25.4,21.6,25.3,21.3,25.2z M24.5,22.7c0.1-0.1,0.2-0.1,0.3-0.2c0.1-0.1,0.2-0.2,0.3-0.3
			c0.4-0.4,0.8-0.7,1-0.9c0.2-0.2,0.5-0.5,0.7-0.9l0.5-0.9c-0.2-0.3-0.3-0.6-0.4-0.7c-0.1-0.1-0.3-0.2-0.4-0.2
			c-0.3,0-0.7,0.3-1.2,0.8c-0.5,0.6-1,1.4-1.7,2.5c-0.2,0.3-0.3,0.6-0.4,0.9c-0.1,0.3-0.2,0.5-0.2,0.6
			C23.3,23.6,23.8,23.3,24.5,22.7z"/>
		<path class="st0" d="M31.7,24.9c-0.1-0.2-0.2-0.4-0.1-0.7c0-0.5,0.2-1.2,0.4-1.9l0.1-0.5c0-0.4,0.3-1.3,0.7-2.5
			c0.4-1.3,0.8-2.1,1.1-2.5c0.2-0.2,0.4-0.2,0.8-0.2c0.3,0,0.5,0.1,0.7,0.2c0.1,0.1,0.2,0.3,0.2,0.5c0,0.4-0.2,1-0.7,1.9l-0.2,0.5
			c-0.1,0.2-0.2,0.4-0.3,0.6c-0.1,0.2-0.1,0.3,0,0.2c0.2-0.3,0.6-0.7,1.3-1.2c0.7-0.5,1.1-0.8,1.4-1c0.1-0.1,0.3-0.1,0.4-0.2
			c0.2-0.1,0.3-0.1,0.4-0.1c0.3-0.1,0.6-0.2,1-0.2c0.3,0,0.5,0,0.7,0.1c0.2,0.1,0.3,0.2,0.4,0.3c0,0.1,0.1,0.2,0.1,0.3
			c0.1,0.1,0.1,0.1,0.2,0.1c0,0,0.1,0,0.1,0.1c0,0,0,0.1,0,0.1c0,0.1-0.1,0.3-0.3,0.5c-0.2,0.2-0.4,0.3-0.7,0.3
			c-0.2,0-0.4,0.1-0.5,0.1c-0.2,0.1-0.4,0.1-0.6,0.2l-0.6,0.4c-0.5,0.3-1,0.5-1.4,0.8c-0.4,0.3-0.7,0.6-1.1,1
			c-0.1,0.1-0.2,0.2-0.3,0.3c-0.1,0.1-0.3,0.3-0.4,0.5c-0.1,0.1-0.2,0.4-0.3,0.9c-0.1,0.5-0.2,0.8-0.2,0.9c0,0,0,0.1-0.1,0.3
			s-0.1,0.3-0.2,0.4c-0.1,0.2-0.3,0.3-0.4,0.4c-0.1,0.1-0.2,0.1-0.3,0.1c-0.2,0-0.3-0.1-0.5-0.3C32,25.2,31.8,25.1,31.7,24.9z"/>
		<path class="st0" d="M40,24.4c0-0.3,0-0.5,0.1-0.7c0-0.1,0-0.2,0-0.3c0-0.1,0-0.2,0-0.2c0-0.1,0-0.4,0.2-0.8
			c0.2-0.4,0.4-1.1,0.7-2c0.3-0.9,0.5-1.5,0.6-1.9c0-0.1,0-0.1,0.1-0.2c0.1-0.1,0.2-0.1,0.3-0.1c0.2-0.1,0.4,0,0.7,0.2
			c0.3,0.2,0.5,0.5,0.7,0.7c0.1,0.1,0.1,0.2,0.1,0.4c0,0.2-0.1,0.6-0.3,1c-0.1,0.2-0.2,0.4-0.2,0.6c-0.1,0.3-0.1,0.5-0.2,0.7
			c-0.2,0.4-0.3,0.8-0.4,1.2c0,0.2-0.1,0.4-0.1,0.5c-0.1,0.6-0.2,1-0.3,1.1c-0.1,0.4-0.2,0.7-0.4,0.9c-0.2,0.2-0.4,0.3-0.6,0.3
			c-0.3,0-0.5-0.1-0.7-0.3C40.1,25.4,40,25,40,24.4z M42.5,15.7c-0.1-0.2-0.2-0.3-0.2-0.5s0-0.3,0-0.3c0.1-0.1,0.2-0.3,0.3-0.5
			s0.2-0.3,0.2-0.4c0.1-0.3,0.2-0.5,0.3-0.6c0.1-0.2,0.2-0.3,0.3-0.4c0.1-0.1,0.2-0.1,0.3-0.1c0.2,0,0.4,0.1,0.7,0.2
			c0.2,0.1,0.4,0.3,0.6,0.5c0.1,0.3,0.2,0.5,0.2,0.7c0,0.4-0.2,0.8-0.5,1.3c-0.2,0.2-0.3,0.4-0.6,0.5c-0.2,0.1-0.4,0.2-0.7,0.2
			c-0.2,0-0.4,0-0.5-0.1C42.8,16,42.6,15.9,42.5,15.7z"/>
		<path class="st0" d="M46.2,25.8c-0.1-0.1-0.3-0.2-0.5-0.4c-0.3-0.3-0.6-0.7-0.7-1c-0.2-0.4-0.2-0.7-0.2-0.9c0-0.1,0.1-0.2,0.1-0.3
			c0-0.1,0-0.2,0-0.2c-0.1-0.1-0.1-0.1-0.1-0.1s0,0,0-0.1c0,0,0.1-0.1,0.1-0.1c0.1,0,0.1-0.1,0.1-0.3c0-0.1,0-0.4,0.2-0.8
			s0.3-0.8,0.5-1.2c0.2-0.3,0.4-0.6,0.8-1.1c0.3-0.4,0.6-0.8,0.9-1c0.8-0.7,1.5-1.1,2.1-1.2c0.3-0.1,0.6-0.1,0.9-0.1
			c0.5,0,0.8,0.1,1.1,0.4c0.3,0.1,0.6,0.3,0.8,0.6c0.2,0.3,0.3,0.6,0.3,1.1c0,0.1,0,0.3,0,0.5c0,1.2-0.4,2.4-1.3,3.6
			c-0.4,0.5-0.7,0.9-1.1,1.3c-0.4,0.3-0.8,0.6-1.3,0.9c-0.3,0.2-0.6,0.3-0.9,0.4c-0.3,0.1-0.7,0.1-1.3,0.1
			C46.4,25.9,46.3,25.8,46.2,25.8z M49.7,22.2c0.1-0.3,0.3-0.8,0.6-1.5c0.1-0.1,0.1-0.4,0.1-0.9c0-0.4-0.1-0.6-0.2-0.6
			c-0.1-0.1-0.2-0.1-0.3-0.1c-0.1,0-0.4,0.1-0.7,0.3c-0.6,0.5-1,1-1.4,1.5c-0.4,0.5-0.6,1.1-0.8,1.8c0,0.1,0,0.2,0,0.3
			c0,0.5,0.2,0.8,0.6,0.8c0.4,0,0.8-0.3,1.4-0.8C49.4,22.7,49.6,22.4,49.7,22.2z"/>
		<path class="st0" d="M59.4,27.3c-0.1-0.1-0.2-0.1-0.2-0.2c-0.1-0.1-0.2-0.2-0.3-0.4s-0.1-0.4-0.1-0.7c0-0.6,0.2-1.3,0.5-2.4
			c0.1-0.4,0.2-0.9,0.4-1.3c0.1-0.3,0.2-0.5,0.2-0.6c0-0.1,0-0.3,0.1-0.4c0-0.2,0.1-0.3,0.1-0.3c0.2,0,0.4-0.3,0.5-1
			c0.1-0.2,0.1-0.4,0.2-0.6s0.1-0.3,0.1-0.4c0,0,0.1-0.1,0.1-0.2c0-0.1,0.1-0.2,0.1-0.3c0.1-0.4,0.3-0.7,0.4-1.1
			c0.2-0.7,0.4-1.5,0.7-2.2s0.5-1.4,0.7-1.7l0.3-0.7c0,0,0.1-0.1,0.1-0.3c0.1-0.1,0.1-0.2,0.1-0.3s0-0.1-0.1-0.1
			c-0.1-0.1-0.2-0.2-0.2-0.5c0-0.4,0.1-0.7,0.4-1c0.2-0.2,0.4-0.4,0.7-0.4c0.3-0.1,0.6-0.1,1.1-0.1c0.2,0,0.5,0,0.9,0
			c0.2,0,0.7,0,1.5,0c0.1,0,0.3,0.1,0.5,0.2c0.5,0.2,0.8,0.4,0.8,0.4c0,0.1,0,0.1,0.1,0.2c0.1,0,0.1,0.1,0.2,0.1
			c0.2,0,0.5,0.2,0.9,0.6s0.8,0.8,0.9,1.2c0.1,0.3,0.2,0.5,0.3,0.7c0.1,0.2,0.1,0.4,0.1,0.6c0,0.1,0,0.3,0,0.5
			c0,0.3-0.1,0.5-0.1,0.7s-0.1,0.4-0.2,0.5c-0.3,0.2-0.4,0.4-0.4,0.5c0,0.2-0.2,0.6-0.7,1.3c-0.5,0.7-0.9,1.3-1.2,1.6
			c-0.4,0.5-0.9,0.9-1.5,1.3c-0.7,0.3-1.4,0.6-2.2,0.8c-0.8,0.2-1.5,0.3-1.9,0.3c-0.5,0.1-0.8,0.1-0.9,0.2c-0.1,0.1-0.2,0.2-0.3,0.4
			c-0.1,0.2-0.2,0.4-0.2,0.7c-0.1,0.2-0.1,0.4-0.1,0.5c-0.1,0.2-0.3,0.7-0.6,1.6c-0.3,0.9-0.5,1.6-0.6,2c-0.1,0.2-0.2,0.4-0.4,0.5
			c-0.2,0.1-0.4,0.2-0.5,0.2C59.5,27.4,59.4,27.4,59.4,27.3z M63.2,19.5c0.4,0,0.9-0.1,1.6-0.4c0.6-0.2,1.2-0.5,1.9-0.9
			c0.3-0.2,0.8-0.7,1.2-1.3c0.1-0.2,0.3-0.5,0.6-1.1c0.1-0.2,0.2-0.5,0.4-0.9c0.1-0.3,0.2-0.7,0.2-0.9c0-0.1,0-0.2,0-0.3
			c-0.2-0.8-0.6-1.4-1.4-1.6c-0.5-0.1-0.9-0.1-1.1-0.1c-0.1,0-0.3,0-0.5,0c-0.3,0.1-0.4,0.2-0.5,0.3c-0.1,0.1-0.2,0.4-0.4,0.9
			c-0.5,1-0.8,1.7-1,2.1c-0.3,1.1-0.6,1.9-0.8,2.5c-0.2,0.6-0.3,0.9-0.4,1V19c0,0.1,0,0.2,0,0.3c0,0.1,0,0.2,0,0.2
			C63,19.5,63.1,19.5,63.2,19.5z"/>
		<path class="st0" d="M70.8,25.8c-0.1-0.1-0.3-0.2-0.5-0.4c-0.3-0.3-0.6-0.7-0.7-1c-0.2-0.4-0.2-0.7-0.2-0.9c0-0.1,0.1-0.2,0.1-0.3
			c0-0.1,0-0.2,0-0.2c-0.1-0.1-0.1-0.1-0.1-0.1s0,0,0-0.1c0,0,0.1-0.1,0.1-0.1c0.1,0,0.1-0.1,0.1-0.3c0-0.1,0-0.4,0.2-0.8
			s0.3-0.8,0.5-1.2c0.2-0.3,0.4-0.6,0.8-1.1c0.3-0.4,0.6-0.8,0.9-1c0.8-0.7,1.5-1.1,2.1-1.2C74.4,17,74.7,17,75,17
			c0.5,0,0.8,0.1,1.1,0.4c0.3,0.1,0.6,0.3,0.8,0.6c0.2,0.3,0.3,0.6,0.3,1.1c0,0.1,0,0.3,0,0.5c0,1.2-0.4,2.4-1.3,3.6
			c-0.4,0.5-0.7,0.9-1.1,1.3c-0.4,0.3-0.8,0.6-1.3,0.9c-0.3,0.2-0.6,0.3-0.9,0.4c-0.3,0.1-0.7,0.1-1.3,0.1
			C71.1,25.9,70.9,25.8,70.8,25.8z M74.3,22.2c0.1-0.3,0.3-0.8,0.6-1.5c0.1-0.1,0.1-0.4,0.1-0.9c0-0.4-0.1-0.6-0.2-0.6
			c-0.1-0.1-0.2-0.1-0.3-0.1c-0.1,0-0.4,0.1-0.7,0.3c-0.6,0.5-1,1-1.4,1.5c-0.4,0.5-0.6,1.1-0.8,1.8c0,0.1,0,0.2,0,0.3
			c0,0.5,0.2,0.8,0.6,0.8c0.4,0,0.8-0.3,1.4-0.8C74,22.7,74.2,22.4,74.3,22.2z"/>
		<path class="st0" d="M84.8,25.4c0,0,0-0.5,0-1.6c0-0.3,0-0.6,0.1-0.9c0-0.3,0-0.6,0-0.7v-0.1v-0.3c0-0.3-0.1-0.5-0.3-0.5
			c-0.3,0-0.8,0.3-1.6,0.8s-1.6,1.2-2.4,2c-0.3,0.3-0.5,0.5-0.6,0.8c-0.2,0.2-0.3,0.3-0.4,0.4c-0.1,0-0.2,0.1-0.4,0.1
			c-0.2,0-0.5-0.2-0.8-0.5c-0.3-0.3-0.5-0.6-0.6-0.8c0-0.4,0.1-0.9,0.2-1.3s0.4-0.9,0.7-1.5c0.1-0.5,0.3-0.9,0.5-1.4
			c0.2-0.6,0.4-1,0.5-1.3c0.1-0.3,0.2-0.6,0.2-0.9c0,0,0,0,0,0c0-0.1,0-0.1,0.1-0.2s0.1-0.1,0.2-0.1c0,0,0.1-0.1,0.3-0.1
			c0.4,0,0.8,0.1,1.1,0.3c0.3,0.2,0.4,0.6,0.4,1c0,0.2,0,0.5-0.1,0.7c-0.1,0.2-0.2,0.6-0.5,1.1l-0.3,0.5c0,0.1-0.1,0.2-0.2,0.4
			s-0.1,0.3-0.1,0.3c0.4-0.3,0.9-0.6,1.4-1.1c0.8-0.6,1.4-1.1,1.9-1.5s0.9-0.5,1.1-0.5c0.2,0,0.5,0.1,0.9,0.3
			c0.4,0.2,0.6,0.4,0.7,0.6c0,0.1,0,0.3,0,0.5s0,0.4-0.1,0.6l0,0.7c0,0.1,0,0.3,0,0.6c0,0.5,0,0.9-0.1,1.1c0,0,0,0,0,0.1
			s0,0.1,0,0.1l0,0c0,0.2,0.1,0.4,0.3,0.8c0.2,0.3,0.2,0.5,0.2,0.6c0,0.2-0.1,0.4-0.3,0.6c-0.2,0.2-0.4,0.3-0.7,0.4
			C85.3,25.4,84.8,25.4,84.8,25.4z"/>
		<path class="st0" d="M91.5,26.2c-0.6,0-1.2-0.2-1.7-0.6c-0.5-0.4-0.7-1-0.7-1.6l0-0.4c0-0.7,0.2-1.6,0.5-2.6
			c0.3-1,0.7-1.8,1.2-2.4c0.4-0.5,0.7-0.8,1-1.1s0.5-0.5,0.8-0.6c0.2-0.1,0.5-0.1,0.8-0.2c0.3-0.1,0.6-0.1,0.7-0.1
			c0.3,0.1,0.6,0.2,0.9,0.3c0.3,0.1,0.4,0.3,0.4,0.5l0.1,0.1c0.1,0,0.2,0.2,0.4,0.5C96,18.4,96,18.7,96,19c0,0.1,0,0.3-0.1,0.4
			c-0.1,0.3-0.2,0.6-0.4,0.9s-0.3,0.4-0.5,0.4c-0.2,0-0.3,0-0.3,0.1c0,0.1-0.1,0.1-0.3,0.1c-0.2,0-0.3,0-0.5-0.1
			c-0.2-0.1-0.3-0.2-0.3-0.3c0-0.1,0.1-0.4,0.2-0.9c0-0.2,0.1-0.4,0.1-0.6c0-0.3-0.1-0.4-0.3-0.4c0,0-0.2,0-0.4,0.1
			c-0.4,0.2-0.7,0.5-1,0.8c-0.2,0.3-0.5,0.7-0.7,1.2c-0.2,0.5-0.4,1.2-0.7,2.2c0,0.2-0.1,0.4-0.1,0.5c0,0.2,0,0.3,0.1,0.5
			s0.1,0.2,0.1,0.2c0.1,0,0.2,0,0.4,0c0.4,0,0.7-0.1,0.9-0.2c0.3-0.2,0.6-0.3,0.8-0.5s0.4-0.3,0.5-0.4c0,0,0.1-0.1,0.2-0.3
			c0.1-0.1,0.2-0.2,0.3-0.3c0.1-0.1,0.2-0.2,0.4-0.3c0.1,0,0.3,0,0.4,0c0.1,0,0.2,0,0.3,0c0.2,0.1,0.4,0.2,0.6,0.4
			c0.2,0.2,0.2,0.4,0.1,0.4c0,0-0.1,0-0.1,0c0,0,0,0.1,0,0.1c0,0.1-0.1,0.3-0.4,0.6c-0.3,0.3-0.6,0.7-0.9,1
			c-0.3,0.3-0.6,0.5-0.7,0.5c-0.1,0-0.1,0-0.2,0c0,0-0.1,0.1-0.1,0.1c0,0.1-0.2,0.2-0.7,0.4c-0.5,0.2-0.9,0.4-1.2,0.4
			C91.7,26.2,91.6,26.2,91.5,26.2z"/>
		<path class="st0" d="M98.3,25.3c-0.6-0.5-0.8-1.2-0.8-2.2c0-0.4,0-0.8,0.1-1.2c0-0.4,0.2-0.9,0.5-1.6c0.3-0.7,0.7-1.3,1.1-1.9
			c0.5-0.6,1-1.1,1.7-1.4c0.3-0.1,0.6-0.2,0.8-0.3c0.2-0.1,0.4-0.1,0.7-0.1c0.6,0,1.2,0.1,1.6,0.4c0.4,0.2,0.7,0.5,0.9,0.8
			c0.2,0.3,0.2,0.6,0.2,0.8v0.1v0.1c0,0.2-0.1,0.5-0.3,1c-0.2,0.5-0.6,1-1.1,1.4c-0.5,0.4-1.1,0.7-1.9,0.7c-0.4,0-0.7,0-1.1-0.1
			c-0.4-0.1-0.6-0.1-0.7-0.1c-0.2,0-0.4,0.1-0.5,0.3c-0.1,0.2-0.1,0.5-0.1,0.9c0,0.4,0.2,0.8,0.4,0.9s0.5,0.3,0.9,0.3
			c0.2,0,0.4-0.1,0.7-0.2c0.3-0.1,0.6-0.3,0.9-0.6c0.2-0.2,0.3-0.3,0.4-0.3c0.1-0.1,0.2-0.1,0.4-0.1c0.1,0,0.3,0.1,0.5,0.3
			c0.2,0.2,0.3,0.4,0.3,0.5c0,0.2-0.2,0.5-0.5,0.9c-0.3,0.4-0.7,0.7-1.2,1c-0.5,0.3-1,0.5-1.6,0.5C99.6,26,98.9,25.8,98.3,25.3z
			 M102,20.2c0.2-0.1,0.4-0.3,0.7-0.6c0.3-0.3,0.5-0.5,0.5-0.7c0-0.2-0.1-0.3-0.2-0.4c-0.1-0.1-0.3-0.2-0.6-0.2h-0.3
			c-0.2,0-0.5,0.2-0.9,0.5c-0.4,0.3-0.7,0.7-1,1.2c0,0.1,0.1,0.1,0.4,0.2c0.2,0.1,0.5,0.1,0.7,0.1C101.7,20.3,101.9,20.3,102,20.2z"
			/>
		<path class="st0" d="M109.8,31.2c-0.4,0-0.8-0.1-1.2-0.3c-0.4-0.2-0.7-0.4-1-0.7c-0.1-0.1-0.1-0.3-0.1-0.6c0-0.3,0-0.6,0.1-0.9
			c0.1-0.3,0.2-0.4,0.3-0.4c0.1,0,0.2,0,0.3,0.1c0.1,0.1,0.2,0.2,0.3,0.3c0.3,0.3,0.6,0.4,0.9,0.4c0.6,0,1.2-0.5,1.8-1.5l0.6-1.4
			c0.9-1.9,1.4-3.1,1.5-3.4c0,0,0,0,0-0.1c0,0,0-0.1,0.1-0.2c0-0.1,0.1-0.2,0.1-0.4c0.1-0.2,0.1-0.4,0.2-0.6l1-2.8
			c0.1-0.3,0.2-0.7,0.3-1c0.1-0.4,0.2-0.7,0.3-0.9c0.1-0.1,0.3-0.8,0.7-2l0.3-1c0.2-0.6,0.3-1,0.4-1.5c0.1-0.4,0.2-0.7,0.1-0.7
			l-1.3,0.2c-0.3,0.1-0.6,0.2-0.9,0.2s-0.3-0.1-0.3-0.3v-0.3c-0.1,0.1-0.2,0-0.3-0.2c-0.1-0.2-0.2-0.4-0.2-0.6
			c0-0.1,0.2-0.3,0.6-0.4c0.4-0.2,0.8-0.3,1.3-0.3l1.2-0.1c0.1,0,0.5,0,0.9-0.1c0.1-0.1,0.3,0,0.8,0.2c0.4,0.2,0.7,0.3,0.8,0.5
			c0.1,0.2,0.2,0.3,0.2,0.5c0,0.2-0.1,0.5-0.2,0.9c-0.1,0.4-0.4,1.2-0.9,2.5l-0.8,2.2c-0.4,1.2-0.7,2-0.9,2.4
			c-0.1,0.2-0.2,0.5-0.3,0.8c-0.3,0.8-0.5,1.4-0.6,1.8c-0.2,0.4-0.4,1-0.6,1.8c0,0.1,0,0.3-0.1,0.4s-0.1,0.3-0.2,0.4l-0.6,1.4
			l-0.2,0.6c0,0.1-0.1,0.3-0.2,0.6c-0.1,0.3-0.3,0.6-0.4,0.7c0,0.1-0.1,0.3-0.3,0.5c-0.1,0.2-0.2,0.3-0.2,0.4c0,0,0,0,0,0.1
			c0,0,0,0.1-0.1,0.1c0,0,0,0-0.1,0.1s-0.1,0.1-0.1,0.2c-0.1,0.2-0.4,0.6-0.9,1.1s-0.9,0.9-1.2,1.1
			C110.6,31.1,110.3,31.2,109.8,31.2z"/>
		<path class="st0" d="M123.9,25.4c-0.1-0.2-0.2-0.6-0.3-1.1c0-0.1,0-0.2,0-0.4c0-0.2,0-0.3,0-0.4c-0.1,0.1-0.1,0.3-0.2,0.5
			c-0.1,0.2-0.2,0.3-0.3,0.3c-0.4,0.4-0.7,0.6-1.1,0.8c-0.5,0.3-0.9,0.5-1.3,0.5c-0.4,0-0.8-0.2-1.1-0.6c-0.5-0.4-0.8-0.9-0.8-1.5
			c0-0.1,0-0.2,0-0.4c0-0.6,0.1-1.1,0.2-1.7c0.1-0.5,0.4-1.2,0.8-2.1l0.7-1.4l0.4-0.7c0.1,0,0.2,0,0.4,0c0.3,0,0.5,0,0.7,0.1
			c0.2,0.1,0.3,0.2,0.4,0.4c0,0.1,0.1,0.2,0.1,0.4c0,0.5-0.2,1.2-0.6,2l-0.2,0.5c-0.3,0.7-0.5,1.2-0.6,1.6c-0.1,0.4-0.2,0.7-0.2,0.9
			c0,0.3,0.1,0.4,0.3,0.5c0.1,0,0.2,0.1,0.3,0.1c0.3,0,0.7-0.2,1.1-0.7s0.9-1.3,1.4-2.5c0.2-0.5,0.4-1.1,0.4-1.7
			c0-0.2,0-0.4,0.1-0.6s0.3-0.4,0.5-0.5c0.1-0.1,0.2-0.2,0.3-0.2c0.1-0.1,0.2-0.1,0.2,0l0.4,0c0,0,0.1,0.1,0.2,0.2
			c0.1,0.2,0.2,0.3,0.2,0.3c0.2,0.1,0.2,0.4,0.2,0.8c0,0.5-0.2,1.2-0.6,2.2c-0.3,0.6-0.5,1.1-0.6,1.5c-0.1,0.3-0.2,0.7-0.2,1
			c0,0.3,0,0.6,0.1,0.8c0.1,0.2,0.2,0.4,0.4,0.6c0.3,0.2,0.4,0.6,0.3,1.2c0,0.1-0.1,0.2-0.3,0.3c-0.1,0.1-0.3,0.1-0.5,0.1
			c-0.3,0-0.6-0.1-0.9-0.2C124.1,25.8,124,25.7,123.9,25.4z M123.2,14.8l0-0.2c0-0.1,0.4-0.6,1-1.3c0.6-0.7,1.1-1.1,1.3-1.2
			c0.1-0.1,0.2-0.1,0.4-0.1c0.2,0,0.4,0.1,0.6,0.3s0.3,0.5,0.3,0.9c0,0.1-0.1,0.3-0.3,0.5s-0.5,0.5-0.9,0.8c-0.6,0.4-0.9,0.8-1.1,1
			c-0.2,0.3-0.4,0.5-0.7,0.5C123.4,15.9,123.2,15.5,123.2,14.8z"/>
		<path class="st0" d="M134,25.4c0,0,0-0.5,0-1.6c0-0.3,0-0.6,0.1-0.9c0-0.3,0-0.6,0-0.7v-0.1v-0.3c0-0.3-0.2-0.5-0.3-0.5
			c-0.3,0-0.8,0.3-1.6,0.8c-0.8,0.5-1.6,1.2-2.4,2c-0.3,0.3-0.5,0.5-0.6,0.8c-0.2,0.2-0.3,0.3-0.4,0.4c-0.1,0-0.2,0.1-0.4,0.1
			c-0.2,0-0.5-0.2-0.8-0.5c-0.3-0.3-0.5-0.6-0.6-0.8c0-0.4,0.1-0.9,0.2-1.3c0.2-0.4,0.4-0.9,0.7-1.5c0.1-0.5,0.3-0.9,0.5-1.4
			c0.2-0.6,0.4-1,0.5-1.3c0.1-0.3,0.2-0.6,0.2-0.9c0,0,0,0,0,0c0-0.1,0-0.1,0.1-0.2c0,0,0.1-0.1,0.2-0.1c0,0,0.1-0.1,0.3-0.1
			c0.4,0,0.8,0.1,1.1,0.3c0.3,0.2,0.4,0.6,0.4,1c0,0.2,0,0.5-0.1,0.7s-0.2,0.6-0.5,1.1l-0.3,0.5c0,0.1-0.1,0.2-0.2,0.4
			c-0.1,0.2-0.1,0.3-0.1,0.3c0.4-0.3,0.9-0.6,1.4-1.1c0.8-0.6,1.4-1.1,1.9-1.5s0.9-0.5,1.1-0.5c0.2,0,0.5,0.1,0.9,0.3
			c0.4,0.2,0.6,0.4,0.7,0.6c0,0.1,0,0.3,0,0.5c0,0.2,0,0.4-0.1,0.6l0,0.7c0,0.1,0,0.3,0,0.6c0,0.5,0,0.9-0.1,1.1c0,0,0,0,0,0.1
			s0,0.1,0,0.1l0,0c0,0.2,0.1,0.4,0.3,0.8c0.2,0.3,0.2,0.5,0.2,0.6c0,0.2-0.1,0.4-0.3,0.6c-0.2,0.2-0.4,0.3-0.7,0.4
			C134.5,25.4,134,25.4,134,25.4z"/>
		<path class="st0" d="M138,24.4c0-0.3,0-0.5,0.1-0.7c0-0.1,0-0.2,0-0.3c0-0.1,0-0.2,0-0.2c0-0.1,0-0.4,0.2-0.8
			c0.2-0.4,0.4-1.1,0.7-2c0.3-0.9,0.5-1.5,0.6-1.9c0-0.1,0-0.1,0.1-0.2c0.1-0.1,0.2-0.1,0.3-0.1c0.2-0.1,0.4,0,0.7,0.2
			c0.3,0.2,0.5,0.5,0.7,0.7c0.1,0.1,0.1,0.2,0.1,0.4c0,0.2-0.1,0.6-0.3,1c-0.1,0.2-0.2,0.4-0.2,0.6c-0.1,0.3-0.1,0.5-0.2,0.7
			c-0.2,0.4-0.3,0.8-0.4,1.2c0,0.2-0.1,0.4-0.1,0.5c-0.1,0.6-0.2,1-0.3,1.1c-0.1,0.4-0.2,0.7-0.4,0.9c-0.2,0.2-0.4,0.3-0.6,0.3
			c-0.3,0-0.5-0.1-0.7-0.3C138.1,25.4,138,25,138,24.4z M140.5,15.7c-0.1-0.2-0.2-0.3-0.2-0.5s0-0.3,0-0.3c0.1-0.1,0.2-0.3,0.3-0.5
			c0.1-0.2,0.2-0.3,0.2-0.4c0.1-0.3,0.2-0.5,0.3-0.6c0.1-0.2,0.2-0.3,0.3-0.4c0.1-0.1,0.2-0.1,0.3-0.1c0.2,0,0.4,0.1,0.7,0.2
			c0.2,0.1,0.4,0.3,0.6,0.5c0.1,0.3,0.2,0.5,0.2,0.7c0,0.4-0.2,0.8-0.5,1.3c-0.2,0.2-0.3,0.4-0.6,0.5c-0.2,0.1-0.4,0.2-0.7,0.2
			s-0.4,0-0.5-0.1C140.7,16,140.6,15.9,140.5,15.7z"/>
		<path class="st0" d="M144.1,25.8c-0.1-0.1-0.3-0.2-0.5-0.4c-0.3-0.3-0.6-0.7-0.7-1c-0.2-0.4-0.2-0.7-0.2-0.9
			c0-0.1,0.1-0.2,0.1-0.3c0-0.1,0-0.2,0-0.2c-0.1-0.1-0.1-0.1-0.1-0.1s0,0,0-0.1c0,0,0.1-0.1,0.1-0.1c0.1,0,0.1-0.1,0.1-0.3
			c0-0.1,0-0.4,0.2-0.8c0.1-0.4,0.3-0.8,0.5-1.2c0.2-0.3,0.4-0.6,0.8-1.1c0.3-0.4,0.6-0.8,0.9-1c0.8-0.7,1.5-1.1,2.1-1.2
			c0.3-0.1,0.6-0.1,0.9-0.1c0.5,0,0.8,0.1,1.1,0.4c0.3,0.1,0.6,0.3,0.8,0.6c0.2,0.3,0.3,0.6,0.3,1.1c0,0.1,0,0.3,0,0.5
			c0,1.2-0.4,2.4-1.3,3.6c-0.4,0.5-0.7,0.9-1.1,1.3c-0.4,0.3-0.8,0.6-1.3,0.9c-0.3,0.2-0.6,0.3-0.9,0.4c-0.3,0.1-0.7,0.1-1.3,0.1
			C144.4,25.9,144.3,25.8,144.1,25.8z M147.7,22.2c0.1-0.3,0.3-0.8,0.6-1.5c0.1-0.1,0.1-0.4,0.1-0.9c0-0.4-0.1-0.6-0.2-0.6
			c-0.1-0.1-0.2-0.1-0.3-0.1c-0.1,0-0.4,0.1-0.7,0.3c-0.6,0.5-1,1-1.4,1.5c-0.4,0.5-0.6,1.1-0.8,1.8c0,0.1,0,0.2,0,0.3
			c0,0.5,0.2,0.8,0.6,0.8c0.4,0,0.8-0.3,1.4-0.8C147.3,22.7,147.5,22.4,147.7,22.2z"/>
		<path class="st0" d="M151.5,24.9c-0.1-0.2-0.2-0.4-0.1-0.7c0-0.5,0.2-1.2,0.4-1.9l0.1-0.5c0-0.4,0.3-1.3,0.7-2.5
			c0.5-1.3,0.8-2.1,1.1-2.5c0.2-0.2,0.4-0.2,0.8-0.2c0.3,0,0.5,0.1,0.7,0.2c0.1,0.1,0.2,0.3,0.2,0.5c0,0.4-0.2,1-0.7,1.9l-0.2,0.5
			c-0.1,0.2-0.2,0.4-0.3,0.6c-0.1,0.2-0.1,0.3,0,0.2c0.2-0.3,0.6-0.7,1.3-1.2c0.7-0.5,1.1-0.8,1.4-1c0.1-0.1,0.3-0.1,0.4-0.2
			c0.2-0.1,0.3-0.1,0.4-0.1c0.3-0.1,0.6-0.2,1-0.2c0.3,0,0.5,0,0.7,0.1c0.2,0.1,0.3,0.2,0.4,0.3c0,0.1,0.1,0.2,0.1,0.3
			c0.1,0.1,0.1,0.1,0.2,0.1c0,0,0.1,0,0.1,0.1c0,0,0,0.1,0,0.1c0,0.1-0.1,0.3-0.3,0.5c-0.2,0.2-0.5,0.3-0.7,0.3
			c-0.2,0-0.4,0.1-0.5,0.1c-0.2,0.1-0.4,0.1-0.6,0.2l-0.6,0.4c-0.5,0.3-1,0.5-1.4,0.8c-0.4,0.3-0.7,0.6-1.1,1
			c-0.1,0.1-0.2,0.2-0.3,0.3c-0.1,0.1-0.3,0.3-0.4,0.5c-0.1,0.1-0.2,0.4-0.3,0.9c-0.1,0.5-0.2,0.8-0.2,0.9c0,0,0,0.1-0.1,0.3
			s-0.1,0.3-0.2,0.4c-0.1,0.2-0.3,0.3-0.4,0.4c-0.1,0.1-0.2,0.1-0.3,0.1c-0.2,0-0.3-0.1-0.5-0.3C151.8,25.2,151.6,25.1,151.5,24.9z"
			/>
	</g>
</g>
</svg>
