<?xml version="1.0" encoding="utf-8"?>
<!-- Generator: Adobe Illustrator 21.0.0, SVG Export Plug-In . SVG Version: 6.00 Build 0)  -->
<svg version="1.1" id="Layer_1" xmlns="http://www.w3.org/2000/svg" xmlns:xlink="http://www.w3.org/1999/xlink" x="0px" y="0px"
	 viewBox="0 0 161.7 36.7" style="enable-background:new 0 0 161.7 36.7;" xml:space="preserve">
<style type="text/css">
	.st0{fill-rule:evenodd;clip-rule:evenodd;fill:#FED136;}
</style>
<g>
	<path class="st0" d="M0.1,14.9c0,0,9.8-22.9,9.7-10.8c0,3.3-1.8,10.4-1.9,13.6c4.2-5.3,7.9-25.1,5.6,7.4
		c3.2-9.3,9.8-30.2,10.7-23.4C24.7,5,14.4,41,23.6,32.9c0.4-0.4,1.1-0.4,1.5,0c0.4,0.4,0.4,1.1,0,1.5c-10,8.8-7-10.6-4.6-23.2
		c-0.4,1.3-1,3.2-2,6.2c-9.3,28.8-6.9,6.5-6.1-4.1c-0.4,0.9-0.9,2-1.7,3.5C4.1,29.4,6.6,9.7,7.4,4.2C5.5,7.1,2.7,14.1,2,15.6
		c-0.2,0.6-0.8,0.8-1.4,0.6C0.1,16-0.1,15.4,0.1,14.9L0.1,14.9z"/>
	<path class="st0" d="M23.4,32.5c1.5-11.4,1.8-19.5,4.1-14.1c0,0,0.1-0.1,0.1-0.1l-0.1,0.2c0.8,1.8,1.8,5.3,3.1,10.7
		c0.1,0.6-0.2,1.1-0.7,1.3c-0.6,0.1-1.1-0.2-1.3-0.8c-1.4-5.5-1.2-4.9-1.8-7.3c-0.6,3.6-1,8.1-1.3,10.5c-0.1,0.6-0.6,1-1.2,0.9
		S23.3,33,23.4,32.5L23.4,32.5z"/>
	<path class="st0" d="M27.5,27.5c-0.1-0.1-0.2-0.1-0.2-0.1c0,0,0,0.1,0,0.1C27.3,27.5,27.4,27.5,27.5,27.5L27.5,27.5z M29.4,26.3
		c0.4-0.4,0.7-0.8,1-1.1c0.4-0.5,1-0.6,1.5-0.2c0.5,0.4,0.6,1,0.2,1.5c-7.2,8.7-10.2-4.1-3-0.5C29.2,26,29.3,26.2,29.4,26.3
		L29.4,26.3z"/>
	<path class="st0" d="M31.6,29.5c0.3,0.8,0.6,1.4,1.4,1.5c0.2-1.5,0.8-20.1,5.4-10.6c2.9,6-5.6,8.5,1.4,10c0.1-0.4,1.2-5.9,2.3-9.2
		c0-0.3,0-0.6-0.1-0.8c0.1,0.1,0.1,0.3,0.2,0.4c0.8-2.2,1.5-3.2,1.9-0.7c0.7,4.3-2.3,9.1,1.8,8.3c0.6-0.2,1.1,0.2,1.3,0.7
		c0.2,0.6-0.2,1.1-0.7,1.3c-2,0.4-3.2,0.1-3.9-0.7c-0.7,1.9-1.8,3.2-3.5,2.8c-2.2-0.6-3.4-1.3-3.9-2.1c-1.3,4.2-4,4.2-5.6-0.2
		c-0.1-0.6,0.2-1.1,0.7-1.3C30.9,28.6,31.5,29,31.6,29.5L31.6,29.5z M35.9,26.2c0.9-1.8,2-3.7,0.4-5.5C36,22.2,36,25.3,35.9,26V26.2
		z"/>
	<path class="st0" d="M47.4,28.8c3.2,0.1,5.7-5.3,3.8-6c-2.1,0.1-3.4,2.9-3.9,4.9c0.2,0.2,0.2,0.5,0.2,0.7
		C47.4,28.5,47.4,28.7,47.4,28.8L47.4,28.8z M45.2,27.6c-0.3-2,0.5-4.8,4.2-6.5c10.1-4.6-0.2,17.6-4.6,7.7
		C44.6,28.3,44.8,27.8,45.2,27.6L45.2,27.6z"/>
	<path class="st0" d="M66.1,15.9c0.2,7.7,0.3,24.8-2.7,20C62,33.6,62,23.4,64,14.5l-0.1-2c0-0.6,0.4-1,0.9-1.1
		c2.3-8.1,6.5-14.1,13-10c7,4.4-4.4,18.1-5.9,22.4c0.2,0.1,0.4,0.4,0.5,0.7c0.1,0.6-0.3,1.1-0.9,1.2c-7.4,0.7,10.4-17.4,5.7-22.1
		C71.9-1.7,68.1,6.4,66.1,15.9L66.1,15.9z"/>
	<path class="st0" d="M74.8,30.6c0.1,0.3,0.1,0.6,0.2,0.8c0.1,0,0.2-0.1,0.4-0.1c-0.2-0.1-0.3-0.3-0.5-0.5
		C74.9,30.7,74.8,30.7,74.8,30.6L74.8,30.6z M77.3,29.5c1.7-2.2,3.1-5.7,2.3-7.2C77.5,22.5,73.9,29.6,77.3,29.5L77.3,29.5z
		 M80.6,28.4c0.4-0.1,0.9,0.1,1.1,0.5c0.3,0.5,0.2,1.1-0.3,1.4c-0.8,0.4-1.8,1-2.8,1.3c-6.7,8.3-9.2-11,0.5-12.6
		c0.6-0.1,1.1,0.4,1.2,1c0,0.2-0.1,0.4-0.2,0.6c2.2,0,3.5,2,0.8,7.4C80.7,28.1,80.7,28.2,80.6,28.4L80.6,28.4z"/>
	<path class="st0" d="M82.2,31.3c12.2-16.5,7.6-7.1,8.4-2.8c1.3-2,2.9-5.7,3.5-7.1c0.2-0.6,0.9-0.8,1.4-0.6c0.5,0.2,0.8,0.8,0.6,1.4
		c-0.8,1.8-1.2,2.6-2.2,4.7c-4.3,8.7-4.9,3.6-5-1.1c-1.8,2.3-4.3,5.8-5.1,6.8c-0.3,0.5-1,0.6-1.5,0.2C82,32.5,81.9,31.8,82.2,31.3
		L82.2,31.3z"/>
	<path class="st0" d="M103.5,21.7L103.5,21.7c-2.1-0.6-14.8,14.5-0.5,7.1c0.5-0.3,1.1-0.1,1.4,0.4c0.3,0.5,0.1,1.2-0.4,1.4
		c-18.4,9.6-5.7-13.9,0.6-10.7c0.5,0.3,0.6,1,0.3,1.5C104.7,21.9,104,22,103.5,21.7L103.5,21.7z"/>
	<path class="st0" d="M109.1,24.6c3-0.2,8.4-1.4,4.3-4.9l0,0C111.7,19.7,110.1,22.1,109.1,24.6L109.1,24.6z M108.4,26.8
		c-0.8,3.6,0.2,6.4,4.9,2.4c0.4-0.4,1-0.4,1.5-0.1c0.4,0.4,0.4,1.1,0.1,1.5c-6.5,5.5-10.7,0.7-8.4-5
		C113.7,7.6,124.3,26.8,108.4,26.8L108.4,26.8z"/>
	<path class="st0" d="M127.1,14.6c-17.6,2.1,0.4-6.7,9.6-13.1c7.8-5.5-1.9,8.3,2.3,23c7.3-6.5,15.9-12.3,12.6-2.3
		c-0.9,2.6-1.7,5.2-2.2,7.9c2.9-4.7,8.9-13.8,10.1-9.3c0.8,3-3.3,12.1,0.7,11.7c0.6-0.1,1.1,0.3,1.2,0.9c0.1,0.6-0.3,1.1-0.9,1.2
		c-6.7,0.6-3.3-8.3-3.1-12.3c-1.2,1.1-2.6,3.3-3.3,4.3c-13.1,20.1-4.5-2.5-3.9-7.4c-2.3,0.5-6.7,4-10.7,7.5c0.5,1.3,1.1,2.7,1.9,4
		c4.4,7.4-11.8,4.6-11.6,3c0.1-0.6,3.2-3.9,7.1-7.5c-2.7-7.5-1.8-14.6,0.3-22.8c-3.1,2-9.9,6.8-13.5,9.5c1-0.1,2.1-0.2,2.9-0.3
		c0.6-0.1,1.1,0.3,1.2,0.9C128.1,14,127.7,14.5,127.1,14.6L127.1,14.6z M138.1,28.1c-1.9,1.8-3.6,3.4-4.7,4.7c2.3,0,5.9,0.1,7.2-0.2
		c-0.1-0.1-0.2-0.2-0.6-0.9C139.2,30.5,138.6,29.3,138.1,28.1L138.1,28.1z"/>
</g>
</svg>
