<?xml version="1.0" encoding="utf-8"?>
<!-- Generator: Adobe Illustrator 21.0.0, SVG Export Plug-In . SVG Version: 6.00 Build 0)  -->
<svg version="1.1" id="Layer_1" xmlns="http://www.w3.org/2000/svg" xmlns:xlink="http://www.w3.org/1999/xlink" x="0px" y="0px"
	 viewBox="0 0 173.2 36.7" style="enable-background:new 0 0 173.2 36.7;" xml:space="preserve">
<style type="text/css">
	.st0{fill-rule:evenodd;clip-rule:evenodd;fill:#FED136;}
</style>
<g>
	<path class="st0" d="M0.7,12.7C6.3-0.2,10.7-2.4,8,13.3c-0.8,4.8-1.7,9.2-2.5,13.8c4.3-12.7,12-38.5,9.2-8.9
		c-0.7,7-0.8,8.2-0.9,9.3c2.9-9.9,8.1-29.5,9.5-23.3c0.7,3.3-8.7,34.4,0.4,26.1c0.4-0.4,1.1-0.4,1.5,0c0.4,0.4,0.4,1.1,0,1.5
		c-7,6.3-7.8-2-6.9-11.1c-1.3,4.8-2.6,9.3-4.1,12.4c-4,8.4-2.4-9.7-1.5-20c-2.3,7.4-5.7,17.8-7.7,20.9c-5.1,7.9,1-22.5,1.8-28.8
		c-1.6,2-3.5,6.5-4.2,8.1c-0.2,0.5-0.8,0.8-1.4,0.6C0.7,13.8,0.5,13.2,0.7,12.7L0.7,12.7z"/>
	<path class="st0" d="M24.3,30.4c2.9-22.3,3.2-21.8,8,2.7c0.1,0.6-0.3,1.1-0.8,1.2c-0.6,0.1-1.1-0.3-1.2-0.8
		c-0.8-4.3-1.7-8.6-2.6-12.8c-0.5,3.5-0.9,7.7-1.2,10c-0.1,0.6-0.6,1-1.2,0.9C24.6,31.6,24.2,31,24.3,30.4L24.3,30.4z"/>
	<path class="st0" d="M28.4,27.9c-0.3-0.1-0.8-0.4-1.2-0.6C27.4,28.4,27.9,28.5,28.4,27.9L28.4,27.9z M29.6,26.1
		c0.6-1,1.1-2.1,1.8-3.1c0.4-0.5,1-0.5,1.5-0.2c0.5,0.4,0.5,1,0.2,1.5l-0.7,1.2c-7.1,11.9-11.8-4.2-2.8,0.4
		C29.5,26.1,29.5,26.1,29.6,26.1L29.6,26.1z"/>
	<path class="st0" d="M34.3,28.1c0,0.5,0.2,3,0.7,3.6c0.8-2.7,4.1-28,7.1-10c0.4,2.7,0,7.7,0.2,9.7c1.1-1.7,2.9-7.9,4.4-11l0,0l0,0
		c1.2-2.4,2.1-2.9,2.2,2.2c0,0.6-0.4,1.1-1,1.1c0,0-0.1,0-0.1,0c-0.8,3-2,6.5-3.3,8.5c-4.7,6.9-4.4-4.8-5.1-11.6
		c-0.3,1.9-0.6,3.9-0.7,4.6c-2.1,13-6.3,9.8-6.5,2.9c0-0.6,0.5-1.1,1.1-1.1C33.8,27,34.3,27.5,34.3,28.1L34.3,28.1z"/>
	<path class="st0" d="M49.3,30.3c0.4,0.7,0.9,1.4,1.3,1.8c4.3-1.4,7-8.4,3.7-12.1c-2.4,1-4.6,6.9-4.9,9.6c0,0.1,0,0.1,0,0.2
		C49.4,30.1,49.4,30.2,49.3,30.3L49.3,30.3z M47.4,28.8l0.1-0.3c3.6-18.9,14.3-8,9.6,0c-3.7,6.3-6.6,7.8-10.2,1.8
		c-0.3-0.5-0.1-1.1,0.4-1.5C47.3,28.9,47.4,28.8,47.4,28.8L47.4,28.8z"/>
	<path class="st0" d="M74,12.5c0,6.4-0.4,28.3-3.6,21.2c-1.8-3.8-1.2-13.8,1.5-21.5l0-1.4c0-0.6,0.4-1,1-1.1c2.7-6.2,7-10,12.5-5.5
		c4.6,3.7-2.9,15.3-5.3,18.1c0.1,0.1,0.2,0.3,0.3,0.6c0.1,0.6-0.3,1.1-0.8,1.2C72.2,25,88.8,9.6,84,5.8C79.4,2.1,76,6.2,74,12.5
		L74,12.5z"/>
	<path class="st0" d="M83.2,27.2c-0.9,4.6,0.9,7.9,5.4,0.8c0.5-0.8,2.4-7.2,2.9-9.9c-2.6,1.8-6.2,5.7-7.1,8.2
		C84.3,26.8,83.8,27.3,83.2,27.2L83.2,27.2z M88.5,17.3c7-6.5,6.3,4.7,1.9,11.9c-8.8,14.3-14.7-5.3-3.1-12
		C87.7,16.9,88.2,17,88.5,17.3L88.5,17.3z"/>
	<path class="st0" d="M90.6,33.4c1.8-3.5,5.5-15.7,6.6-16.4c3.6-2.3,1.4,8.1,2,12.9c1.8-3.5,4.5-11,5.3-13c0.2-0.5,0.8-0.8,1.4-0.6
		c0.6,0.2,0.8,0.8,0.6,1.4c-0.8,2.1-5,13.6-6.6,15.2c-2.8,3-3-4.7-2.9-10c-1.4,3.9-3.4,9.5-4.6,11.8c-0.3,0.5-1,0.6-1.5,0.2
		C90.3,34.5,90.2,33.8,90.6,33.4L90.6,33.4z"/>
	<path class="st0" d="M113,18.9c-3.2-2-12.4,12.7-6.4,12.7c1.7,0,3.7-0.7,5.3-1.2c0.5-0.2,1.1,0,1.4,0.6c0.2,0.5-0.1,1.2-0.6,1.4
		c-20.4,7.2-4.9-19.9,1.7-15c0.4,0.4,0.5,1.1,0.1,1.5C114.1,19.2,113.4,19.2,113,18.9L113,18.9z"/>
	<path class="st0" d="M115.5,25.5c6.1,2.7,9.3-5.7,4.9-7.6c-1.1-0.5-3.8,4.7-4.1,5.2l0,0C116,23.9,115.7,24.7,115.5,25.5L115.5,25.5
		z M115.3,27.8c0.3,3.8,3.8,5.1,5.7,3.5c0.4-0.4,1.1-0.4,1.5,0c0.4,0.4,0.4,1.1,0,1.5c-0.8,0.7-1.1,0.9-2.2,1.2
		c-5.6,1.3-7.3-2.7-6.9-7.2l0,0c-0.4-0.4-0.3-1.1,0.1-1.5c0,0,0.1-0.1,0.1-0.1c1-5.5,4.7-11,8-8.9C129,20.8,121.4,30.1,115.3,27.8
		L115.3,27.8z"/>
	<path class="st0" d="M134.7,13c-9-1.7,14-9.4,16-10.3c11.2-5.3-3.7,5.3-1.4,15.6c0.2,0.9,0.5,1.8,0.8,2.7
		c7.3-6.4,15.1-10.6,11.8-0.6c-0.9,2.8-1.9,5.7-2.4,8.6c3.7-5.8,12.4-18.9,12.8-12.7c0.2,2.9-5.1,15.5-0.3,15.1
		c0.6-0.1,1.1,0.3,1.2,0.9c0.1,0.6-0.3,1.1-0.9,1.2c-8,0.7-2.7-11.2-2.1-15.9c-1.9,2-5.4,7.6-6.1,8.6c-12.5,19.5-4.5-4.8-3.3-9.5
		c-3,1.7-6.5,4.1-9.8,6.8c2.5,6.7,4.8,13.4-11,11.2c-2.5-0.4,2.4-6.7,8.3-12.2c-1.8-4.5-3-10.3,1.9-17.4c-4.8,2.1-10.1,4.4-14.5,6.5
		c0.1,0.2,0.1,0.4,0.1,0.6C135.8,12.7,135.3,13.1,134.7,13L134.7,13z M149.5,24.9c-2.9,2.5-5.5,5.1-7.4,7.7l3.7-0.1
		C153,31.9,151.5,29.3,149.5,24.9L149.5,24.9z"/>
	<path class="st0" d="M46.6,16.5L46.6,16.5L46.6,16.5c0-0.1,0-0.1,0-0.1v0v0l0,0l0,0l0,0c0,0,0,0,0,0v0v0l0,0l0,0v0v0v0h0v0v0l0,0v0
		l0,0l0,0v0l0,0v0l0,0l0,0v0l0,0c0.1-0.2,0.2-0.3,0.4-0.4h0v0h0l0,0l0,0l0,0h0l0,0l0,0l0,0l0,0h0l0,0h0l0,0l0,0l0,0
		c0.1,0,0.1,0,0.2,0h0h0c0,0,0.1,0,0.1,0l0,0l0,0h0h0l0,0c0,0,0,0,0,0l0,0l0,0h0h0h0l0,0l0,0h0h0l0,0h0l0,0h0l0,0l0,0l0,0h0h0l0,0
		l0,0c4.5-0.7,0,4.8-1.2,1.1C46.6,16.6,46.6,16.6,46.6,16.5L46.6,16.5z"/>
</g>
</svg>
